<?xml version="1.0" encoding="utf-8"?>
<!-- Generator: Adobe Illustrator 19.0.0, SVG Export Plug-In . SVG Version: 6.00 Build 0)  -->
<svg version="1.1" id="logo" xmlns="http://www.w3.org/2000/svg" xmlns:xlink="http://www.w3.org/1999/xlink" x="0px" y="0px"
	 viewBox="0 0 177.3 263.2" style="enable-background:new 0 0 177.3 263.2;" xml:space="preserve">
<style type="text/css">
	.st0{fill:#B72121;stroke:#000000;stroke-miterlimit:10;}
	.st1{fill:#C62C2C;stroke:#000000;stroke-miterlimit:10;}
	.st2{fill:#FFFF00;stroke:#000000;stroke-miterlimit:10;}
</style>
<g id="inside">
	<path id="embelm" d="M166.1,169.4c-8.1-8.5-22-13.9-30-16.3v-1.3c8-3.3,16.4-9.2,21.7-17.8c5.3-8.6,7.2-18.2,7.2-28.9
		c0-9.4-2.2-17.4-5.8-24c-3.6-6.6-8.8-12-15.2-16.2c-6.4-4.1-14.3-6.5-23.3-8.5c-9-2-19.1-2.3-30-2.3H37v20h22.2H87
		c16.8,0,29.3,2.7,37.7,7.9c8.4,5.2,12.6,14.1,12.6,26.5c0,10.9-2.9,19.6-11,25.9c-7.5,5.8-17.4,9.1-34.4,9.5v27.7
		c18,0,32.9-0.3,42.8,5.8c10,6.2,14.9,14.2,14.9,27.5c0,14.4-5.2,23-15.4,29.8c-10.2,6.9-24.6,8.3-43.1,8.3H59.2h-5.2h-1v-81h23.7
		c0.1,0,0.3,1.1,0.3,1.1v21.9h18.3c0.4,0,0.4,0.3,0.6,0.1c0.2-0.2,0-0.2,0-0.7v-4.4H84v-48.8c-3,0-4,0-5,0.1c-1,0.1-1.6,0.2-1.8,0.5
		c-0.2,0.3-0.3,0.7-0.3,1.4v13.8H53v-43h56.3c1.1,0,1.9-0.2,2.3-0.8c0.4-0.6,0.7-1.4,0.7-3.7c0.1-2.3,0.1-5.6,0.1-10.6H39.7
		c-1.5,0-2.7,0.1-2.7,2.6v151.7v8.2v11.5h58.2c12,0,23,0.6,33-2c10-2.6,18.6-5.6,25.8-10.8c7.2-5.2,12.7-11.3,16.7-19.1
		c3.9-7.8,6.7-16.7,6.7-27.2C177.3,189.3,174.1,177.9,166.1,169.4z"/>
	<g id="woman">
		<path id="XMLID_85_" class="st0" d="M33.2,28L33.2,28c0,0.2-0.1,0.4-0.2,0.5c-0.3,0.4-0.6,0.9-0.9,1.4c-0.4,0.7-0.9,1.4-1.6,1.7
			c-2.4,1-5,1.6-7.5,2c-1.5,0.2-3,0.5-4.5,0.9c-1,0.3-1.9,0.9-2,2.1c-0.1,0.6,0,1.1,0.1,1.7c0.3,1.4,0.2,2.7-0.5,4
			c-0.2,0.4-0.5,0.8-0.8,1.4c0.9-0.3,1.3-0.8,1.9-1.5c0.1,0.9,0.2,1.7,0.2,2.5c0.7-0.5,0.6-1.3,0.8-2c0.3,0,0.5,0.1,0.9,0.1
			c0.2-0.3,0.6-0.6,1.1-0.7c-0.4-0.1-0.8-0.2-1.1-0.4c-0.4-0.2-0.6-0.6-0.4-1.1c0.2-0.4,0.3-0.9,0.5-1.3c0.1,0,0.1,0,0.2-0.1
			c0.2,0.4,0.5,0.7,0.7,1.1c0.2,0.3,0.2,0.7,0.3,1c0.1,0.2,0.4,0.3,0.6,0.4c-0.2-0.6-0.3-1.2-0.4-1.8c-0.2-1.2-0.3-2.4-1.4-3.4
			c4.5-0.7,8.9-1.3,13.4-2l0.1-1.3C32.9,31.5,33.4,28.7,33.2,28z M24.6,49.1c-0.4,0.2-0.6,0.5-0.8,0.5h0c0,0,0-0.2,0-0.2
			c0,0-0.1-0.2-0.1-0.2c-0.2-0.3-0.3-0.6-0.5-1.5c0.1,0.1,0.2,0.1,0.3,0.2l-5-4.4c-0.2,0.5-0.4,1-0.4,1.6c-0.1,1.7,0.1,3.3-0.3,5
			c-0.5,2-0.7,4-1.2,6c-0.4,1.6-0.8,3.2-1.3,4.7c-0.8,2.9-1.9,5.8-3.4,8.4c-1,1.7-2.3,3.3-3.5,4.9c-0.9,1.2-1.8,2.4-2.3,3.8
			c-0.4,1.3-0.8,2.5-1.3,3.8c-0.4,1-1,1.8-2.2,2C2.2,83.7,1.6,84,1,84.2c0.2,0.2,0.3,0.3,0.4,0.3c1.3,0.8,2.7,1.1,4.2,1.3
			c0.2,0,0.4-0.2,0.5-0.3c0.6-1.2,1.2-2.3,1.7-3.5c0.5-1.1,1-2.2,1.6-3.3c0.1-0.1,0.3-0.3,0.4-0.3c0.2,0.1,0.4,0.3,0.5,0.5
			c0.1,0.2,0.1,0.4,0,0.6c-0.3,1-0.6,2-0.9,3c-0.4,1.1-0.9,2.2-1.3,3.3c-0.2,0.4-0.1,0.7,0.5,0.7c0.1-0.2,0.1-0.4,0.2-0.7
			c0.4-1.8,0.9-3.5,1.9-5c0.7-1,1.5-1.9,2.3-2.8c1-1.3,1.3-2.5-0.6-3.5c0,0,0-0.1-0.1-0.1c2.9-3.8,6.4-7.3,9-11.4c0,0,0.1,0,0.1,0.1
			c0,0.1,0,0.2,0.1,0.2c0,0.1,0,0.2,0.1,0.3c0.9,2.9,1.7,5.8,2.2,8.7c0.4,2.6,0.7,5.1,0.5,7.7c-0.2,2-0.6,4-0.8,6
			c-0.1,1.1-0.1,2.2,0,3.3c0.1,1.1,0.4,2.1,0.6,3.1c0.3,1.5,0.2,3-1.2,4c-0.3,0.2-0.6,0.6-0.9,1.1c1.9,0.3,3.4-0.3,5.1-0.9
			c0-0.7,0-1.5,0-2.2c-0.1-1.9-0.3-3.8-0.4-5.7c0-0.2,0.1-0.5,0.2-0.6c0.2,0,0.5,0.1,0.7,0.2c0.2,0.1,0.3,0.4,0.3,0.6
			c0.2,0.8,0.4,1.6,0.5,2.4c0.2,1.5,0.4,3,0.5,4.6c0.3,0,0.5,0,0.8,0c-0.2-0.7-0.4-1.3-0.5-1.9c-0.4-1.7-0.6-3.5-0.3-5.2
			c0.2-0.8,0.4-1.6,0.5-2.4c0.3-1.9-0.3-2.9-2.2-2.9c0,0-0.1,0-0.1-0.1c0-0.1,0-0.2,0-0.3c0.3-1.6,0.5-3.2,0.9-4.7
			c0.6-3,1.2-5.9,1.4-9c0.2-2.2,0.2-4.4-0.5-6.5c-0.9-2.8-2.3-5.2-4.3-7.4c-0.2-0.2-0.3-0.4-0.4-0.7c0,0,0.1-0.1,0.1-0.1
			c0.7,0.1,1.4,0.3,2.1,0.4c1.9,0.1,3.9,0.1,5.8,0.2c0.1,0,0.2,0,0.3,0l-7.6-6.5C24.6,49,24.6,49.1,24.6,49.1z M24,48.2
			c0.1,0.2,0.3,0.3,0.5,0.4L24,48.2z M37.8,20.8C37.8,20.8,37.8,20.7,37.8,20.8c0-0.1,0-0.1,0-0.1h0c-0.4,0-0.7,0.1-1,0.2
			c-0.4,0.3-0.6,0.9-1,1.5c0,0,0,0,0,0c0,0,0,0.1,0,0.1l0,0l1.7-1.4L37.8,20.8L37.8,20.8C37.8,20.8,37.8,20.8,37.8,20.8z M52.9,22.1
			c-0.5-1.8-1.5-3.5-2.5-5c-0.4-0.7-0.8-1.3-1.3-2c1.6-0.4,2-0.6,2.2-0.9c-1.4,0.2-2.8-0.5-3.1-1.6c-0.5-1.6-0.7-3.2-0.8-4.8
			c0-1.9-0.4-3.7-1.4-5.4c-1-1.8-3.2-2.4-5-1.3c-0.1,0.1-0.3,0.1-0.5,0.1c-0.6-0.3-1.1,0-1.5,0.4c-0.5,0.6-0.7,1.3-0.7,2
			c-1.4,0.1-2.5,0.7-3.3,1.8c-0.8,1.1-1.1,2.4-1.3,3.7C33.5,9.1,33.2,9,33,8.9c0.1,0.1,0.2,0.3,0.2,0.3c0.6,0.1,0.7,0.6,0.6,1.1
			c0,1.3,0.2,2.6,0.7,3.8c0.3,0.7,0.8,1.4,1.7,1.4c0.1,0,0.3,0.2,0.4,0.3c0.4,0.9,0.7,1.8,1,2.6c0.2,0.5,0.3,0.9,0.5,1.4l2.8-0.5
			c-1-1.4-1.6-2.9-1.5-4.7c0-0.3,0.1-0.6,0.3-0.8c0.5-0.6,1.1-1.2,1.6-1.8c0.8-1,1.4-2.1,1.6-3.3c0.1-1,0.2-1.9,0.7-2.9
			c0.2,0.3,0.4,0.5,0.4,0.8c0.1,1.8,0,3.6-0.3,5.4c-0.2,0.7-0.2,1.5-0.2,2.2c0.2,1.8,1.2,3.2,2.3,4.5c1.1,1.1,2.3,2.1,3.4,3.1
			c0.2,0.2,0.3,0.4,0.3,0.6c-0.1,0.7-0.3,1.4-0.5,2.2c0.8,0.1,1.2-0.5,1.6-1.1c0.1,0.1,0.2,0.1,0.2,0.2c0.6,1.1,0.9,2.3,1,3.5
			c0,1.3-0.3,2.4-0.8,3.6c-0.2,0.5-0.4,1.1-0.6,1.6c0.1,0.1,0.2,0.2,0.3,0.2c0.3-0.4,0.6-0.7,0.8-1.1C53.6,28.6,53.9,25.4,52.9,22.1
			z M62.1,50.1c-0.1,0-0.1,0-0.2,0c-0.1,0-0.1,0.1-0.2,0.1c-1,0.8-1.9,1.6-3.3,1.6c-0.3,0-0.8,0.3-1,0.1c-0.2-0.2-0.2-0.7-0.2-1
			c-0.6-2.4-1.1-4.7-1.8-7.1c-1-3.3-2.5-6.4-4.3-9.4c-0.8-1.4-1.7-2.9-2.2-4.5c-0.7-2.3-1.6-4.6-2.5-6.9c-0.6-1.3-1.3-1.7-2.6-1.5
			c0,0-0.1,0-0.1,0c-0.5,0.3-1,4.9-0.2,5.1c1.3,1.1,2.4,2.3,3,3.9c0.5,1.6,1.2,3.1,1.7,4.7c0.5,1.7,1,3.4,1.9,4.9
			c1.9,3.2,3.5,6.4,4.5,9.9c0.2,0.8,0.8,1.6,0.3,2.6c0.2,0,0.4,0.1,0.6,0.1c0,0.2,0,0.4,0.1,0.6c0.3,0,0.5,0,0.8,0.1
			c0,0.2,0.1,0.4,0.1,0.6c0.2,0,0.5,0,0.7,0c0.6,0.2,1,0,1.4-0.3c0.2-0.1,0.5-0.2,0.7-0.2c0.4,0,0.7,0.2,1.2,0.3
			c-0.2,0.4-0.2,0.7-0.5,0.9c-0.2,0.2-0.6,0.3-1,0.5c0.3,0.2,0.6,0.3,0.9,0.5c-0.2,0.4-0.4,0.8-0.5,1.2l0.1,0.1
			c1.5-1.2,2.3-2.9,3.2-4.6C61.2,52,61.6,51.1,62.1,50.1z"/>
		<path id="XMLID_30_" class="st1" d="M44.9,46.2c-0.3-1.8-1-3.5-2.5-4.7c-1.3-1-2.5-2-3.8-3c-1.3-1.1-2.2-2.3-1.9-4.1
			c0.2-1.3,0.7-2.3,1.7-3.2c1.7-1.6,3.5-3,5.2-4.6c-0.8-0.3-0.3-4.9,0.2-5.1c-0.1,0-0.3-0.1-0.4-0.1c-0.5-0.3-1.1-0.6-1.5-1
			c-0.3-0.3-0.6-0.7-0.9-1l-2.8,0.5c0.1,0.3,0.2,0.7,0.4,1c-0.3,0-0.5,0-0.8,0c0,0,0,0,0,0l-2,1.6l0,0c-0.5,0.1-1.1,0.1-1.7,0.2
			c-1,0.1-1.6,0.7-1.6,1.7c-0.1,1.1,0.2,2.1,0.6,3.1c0.1,0.2,0.1,0.4,0.1,0.6c0.3,0.7-0.3,3.5-0.6,5.2l-0.1,1.3
			c0.2,3.3,0.4,6.7,0.6,10c-1.1-0.3-2.4-0.7-3.6-1c-1.7-0.5-3.3-1-5-1.4c-0.9-0.2-1.8-0.2-2.8-0.2c-0.2,0-0.4,0-0.6,0
			c-0.2,0.1-0.4,0.2-0.5,0.2c-0.1,0-0.2-0.1-0.3-0.1c-0.5,0.1-0.8,0.4-1.1,0.7c-0.2,0.3-0.4,0.6-0.5,0.8c0,0,0,0,0,0l5,4.6
			c0.1,0.1,0.3-0.4,0.4,0.6h0c0,0,0-0.2,0-0.2l0.5,0.3c0.1,0,0.1,0,0.2,0.1c0,0,0,0,0,0l7.6,6.6l0,0c0.1,0,0.2,0.1,0.3,0.2
			c1.1,1.1,2.1,2.2,3.2,3.3c0.1,0.1,0.4,0.3,0.5,0.3c0.7,0,1.4,0,2.2,0c0-0.3,0.1-0.5,0-0.8c-0.1-1.5,0.9-2.4,1.7-3.4
			c0.2-0.3,0.8-0.5,0.9-0.8c0.3-1,1.1-1.4,1.7-2.1c0.5-0.6,1.1-1.2,1.6-1.9C45.1,49,45.1,47.6,44.9,46.2z"/>
		<path id="XMLID_40_" class="st2" d="M18.6,43.5c0,0,0.2-0.5,0.5-0.8C18.9,42.9,18.7,43.2,18.6,43.5z"/>
		<path id="XMLID_41_" class="st2" d="M20.1,41.9c0.2-0.1,0.5-0.1,0.8-0.1c-0.2,0.1-0.4,0.2-0.5,0.2C20.4,42,20.2,41.9,20.1,41.9z"
			/>
		<path id="XMLID_42_" class="st2" d="M23.9,48.2C23.9,48.2,23.9,48.2,23.9,48.2l-0.4-0.3C23.6,47.9,23.8,48,23.9,48.2L23.9,48.2z"
			/>
		<path id="XMLID_43_" class="st2" d="M24.6,48.8C24.6,48.8,24.6,48.8,24.6,48.8l-0.2-0.2C24.5,48.7,24.5,48.7,24.6,48.8z"/>
		<path id="XMLID_47_" class="st2" d="M32.6,33.3l-0.1,1.3C32.4,34.3,32.5,33.8,32.6,33.3z"/>
		<path id="XMLID_48_" class="st2" d="M32.6,33.3l0.6-5.2l0-0.1C33.4,28.7,32.9,31.5,32.6,33.3z"/>
		<path id="XMLID_46_" class="st2" d="M43.8,21.5C43.8,21.5,43.2,21.8,43.8,21.5C43.7,21.5,43.8,21.5,43.8,21.5z"/>
		<path id="XMLID_28_" class="st0" d="M24,49.2c0,0-3.9,1.2-5.3,2.5S21.3,63,21.3,63"/>
		<path id="XMLID_44_" class="st2" d="M37.8,20.8l-2,1.6C36,22.3,37.4,20.9,37.8,20.8L37.8,20.8C37.8,20.9,37.8,20.8,37.8,20.8z"/>
		<path id="XMLID_27_" class="st0" d="M23.5,49.1"/>
	</g>
</g>
</svg>
