<svg version="1.1" id="Layer_1" xmlns="http://www.w3.org/2000/svg" x="0" y="0" viewBox="0 0 181.8 284.7" xml:space="preserve"><style>.st0,.st2{fill:#b72121;stroke:#000;stroke-miterlimit:10}.st2{fill:#ff0}</style><g id="woman"><path id="XMLID_85_" class="st0" d="M95 80.9v.2c-.1.4-.3.8-.6 1.3-.9 1.3-1.6 2.7-2.5 4-1.3 1.9-2.5 4-4.7 4.9-7.1 2.9-14.5 4.6-22 5.7-4.4.6-8.8 1.4-13.1 2.6-2.9.8-5.5 2.6-5.8 6-.2 1.6 0 3.3.3 4.9.8 4.1.6 8-1.4 11.7-.7 1.2-1.4 2.4-2.4 4 2.5-.9 3.9-2.4 5.6-4.5.2 2.8.4 5 .7 7.4 2.2-1.4 1.9-3.7 2.3-5.7.8.1 1.6.2 2.5.3.7-.8 1.8-1.7 3.2-2.1-1.2-.3-2.3-.7-3.3-1.3-1.2-.6-1.6-1.8-1.1-3.2.5-1.2.9-2.5 1.4-3.8.2-.1.4-.1.6-.2.7 1.1 1.4 2.2 2 3.3.4 1 .5 2.1.9 3 .3.6 1.1.9 1.7 1.3-.4-1.7-1-3.5-1.3-5.2-.7-3.4-1-7-4-9.8 13.2-2 26.1-3.9 39-5.8l.4-3.7c.7-5.1 2.4-13.3 1.6-15.3zm-25 60.9c-1.1.5-1.9.9-2.4.9h-.1l-.3-.3c-.7-.8-1-1.6-1.4-4.2.3.3.6.4.9.6L52.3 126c-.7 1.5-1.1 3.1-1.2 4.7-.3 4.9.4 9.8-.8 14.7-1.4 5.8-2.1 11.6-3.4 17.4-1 4.7-2.4 9.3-3.7 13.9-2.4 8.5-5.5 16.8-10 24.4-3 5-6.7 9.5-10.1 14.2-2.6 3.5-5.3 6.9-6.7 11.2-1.2 3.7-2.4 7.4-3.8 11-1.1 2.9-2.9 5.1-6.3 5.7-1.7.3-3.3 1.1-5.3 1.8.6.5.8.8 1 .9 3.7 2.4 7.9 3.1 12.1 3.8.5.1 1.3-.5 1.5-1 1.7-3.4 3.4-6.8 5-10.2 1.5-3.2 3-6.5 4.6-9.7.2-.4 1-1 1.1-.9.6.4 1.1.9 1.4 1.5.2.5.2 1.1.1 1.7-.8 3-1.6 5.9-2.7 8.8-1.2 3.3-2.6 6.4-3.9 9.7-.5 1.3-.2 2.1 1.5 2.1.2-.7.3-1.3.5-2 1-5.2 2.7-10.2 5.6-14.5 2-2.9 4.5-5.4 6.6-8.3 3-3.9 3.7-7.4-1.7-10.3-.1 0-.1-.2-.3-.4C42 205 52.1 195 59.7 183c.1 0 .3.1.4.1.1.2.1.5.2.7.1.3.1.6.2.9 2.6 8.4 4.9 16.8 6.3 25.5 1.2 7.5 2.2 15 1.6 22.6-.5 5.9-1.6 11.7-2.2 17.6-.3 3.2-.4 6.5-.1 9.8.3 3.1 1.1 6.1 1.7 9.1.8 4.5.6 8.7-3.6 11.7-1 .7-1.6 1.9-2.7 3.1 5.4.8 10-.9 14.8-2.7 0-2.1.1-4.3 0-6.5-.4-5.5-.9-11-1.3-16.5 0-.5.4-1.6.7-1.6.6-.1 1.4.2 1.9.7.5.4.8 1.1 1 1.7.6 2.3 1.2 4.7 1.5 7.1.6 4.4 1 8.8 1.5 13.4.8 0 1.4-.1 2.3-.1-.6-2-1.1-3.7-1.6-5.4-1.2-5-1.8-10.1-.8-15.3.5-2.4 1.1-4.7 1.4-7.1.8-5.7-.8-8.5-6.4-8.6-.1 0-.2-.1-.4-.2v-.8c.8-4.6 1.6-9.2 2.5-13.8 1.8-8.7 3.6-17.3 4.2-26.2.5-6.4.5-12.8-1.5-19-2.5-8.1-6.7-15.3-12.5-21.5-.5-.5-.8-1.3-1.2-1.9.1-.1.3-.2.4-.4 2 .4 4.1 1 6.1 1.1 5.6.3 11.3.4 16.9.6.2 0 .5.1.7.1L70 141.6v.2zm-1.9-1.9c.4.6.9.9 1.3 1.2l-1.3-1.2zm40.4-80.1c0-.1 0-.1 0 0-1.1-.1-2.1 0-2.9.5-1.3.8-1.9 2.7-2.8 4.2 0 .1-.1.1-.1.2l4.9-4.1.9-.8zm44.2 3.9c-1.6-5.3-4.3-10.1-7.3-14.7-1.2-1.9-2.5-3.8-3.8-5.8 4.6-1.1 5.8-1.6 6.4-2.7-4.2.6-8.2-1.5-9.1-4.7-1.3-4.6-2.1-9.3-2.2-14.2-.1-5.5-1.2-10.8-4-15.7-3-5.4-9.3-7-14.5-3.7-.4.2-1 .4-1.4.2-1.9-.8-3.3 0-4.5 1.3-1.5 1.7-2.1 3.7-2 6-4.1.3-7.3 2-9.7 5.2-2.3 3.2-3.1 6.9-3.8 10.8-.9-.3-1.7-.4-2.4-.7.3.3.4.8.7.9 1.8.4 1.9 1.7 1.9 3.2-.1 3.9.6 7.7 2.1 11.2.9 2.2 2.3 4 5.1 4.1.4 0 .9.5 1.1.9 1 2.5 2 5.1 2.9 7.7.5 1.3 1 2.7 1.5 4l8.1-1.5c-3-4-4.7-8.5-4.4-13.8 0-.8.4-1.7.9-2.3 1.4-1.8 3.1-3.4 4.5-5.2 2.2-2.9 4.2-6 4.7-9.8.3-2.8.5-5.6 2.2-8.5.5.9 1 1.5 1.1 2.3.4 5.3.1 10.6-1 15.8-.4 2.1-.7 4.3-.5 6.3.6 5.2 3.4 9.4 6.8 13.1 3.1 3.2 6.6 6.1 9.8 9.2.5.4.9 1.3.8 1.8-.3 2.1-.9 4.2-1.4 6.3 2.3.4 3.4-1.5 4.7-3.2.2.2.5.3.6.5 1.8 3.2 2.8 6.6 2.8 10.3.1 3.7-1 7.1-2.2 10.5-.5 1.5-1.1 3.1-1.6 4.6.3.2.6.4.9.7.8-1.1 1.7-2.1 2.4-3.2 5.7-8.4 6.7-17.5 3.8-27.2zm26.7 81.6c-.3 0-.4-.1-.5-.1-.2.1-.3.3-.5.4-2.8 2.3-5.6 4.7-9.6 4.7-1 0-2.4.8-2.8.4-.6-.6-.5-2-.7-3-1.7-6.9-3.1-13.9-5.1-20.6-2.9-9.7-7.4-18.8-12.5-27.5-2.5-4.2-5-8.5-6.5-13.1-2.1-6.8-4.6-13.5-7.4-20.1-1.6-3.8-3.7-4.9-7.6-4.5h-.3c-1.5.8-2.8 14.3-.5 15 3.8 3.3 7.1 6.7 8.7 11.5 1.5 4.6 3.5 9.1 5 13.8 1.6 4.9 2.9 9.9 5.6 14.4 5.4 9.2 10.2 18.7 13.2 29 .7 2.4 2.4 4.7.8 7.5.7.1 1.3.2 1.8.3.1.6.1 1.2.2 1.8.8.1 1.5.1 2.3.2.1.6.2 1.1.4 1.7.7 0 1.4-.1 1.9 0 1.6.5 2.9.1 4.2-1 .4-.4 1.3-.5 2-.5 1 .1 2 .5 3.4.9-.5 1-.7 2.1-1.4 2.8-.7.7-1.8.9-3 1.4 1 .5 1.7.9 2.5 1.4-.5 1.2-1 2.4-1.5 3.5l.4.2c4.5-3.4 6.6-8.4 9.3-13.3-4.2-1.6-3.2-4.4-1.8-7.2z"/><path id="XMLID_30_" d="M129.2 133.9c-1-5.3-2.9-10.2-7.3-13.6l-11.1-8.7c-3.9-3.1-6.3-6.9-5.6-12.1.5-3.7 2.2-6.8 4.9-9.2 5-4.5 10.1-8.9 15.2-13.4-2.3-.7-.9-14.2.5-15-.4 0-.8-.2-1.1-.4-1.5-.9-3.1-1.7-4.3-3-.9-1-1.8-1.9-2.5-3l-8.1 1.5c.4.9.7 1.9 1.1 2.8h-2.4.1l-5.8 4.8h0c-1.5.2-3.3.3-5 .5-3 .3-4.5 1.9-4.8 4.9-.3 3.2.7 6.1 1.8 9 .2.6.3 1.2.3 1.7.8 2-.9 10.2-1.8 15.3l-.4 3.7c.6 9.8 1.2 19.5 1.7 29.3-3.3-.9-7-1.9-10.6-3-4.9-1.4-9.8-3-14.7-4.2-2.6-.6-5.4-.5-8.1-.7-.6 0-1.2-.1-1.8-.1-.5.2-1 .6-1.4.5l-.9-.3c-1.4.4-2.4 1.2-3.2 2.1-.6.8-1.1 1.6-1.5 2.5 0 0 0 0 0 0l14.5 12.8c.4.2.8.4 1.2 1h0c0 .1.1.1.1.2l1.3 1.2c.2.1.4.3.6.5v.1l22.1 19.5h0c.3.1.6.3.9.5 3.2 3.2 6.2 6.4 9.4 9.6.4.4 1 .8 1.6.8 2.1.1 4.2 0 6.3 0 .1-.9.2-1.6.1-2.3-.4-4.3 2.7-7 4.9-10 .7-1 2.4-1.5 2.6-2.5.8-2.9 3.3-4 5-6 1.6-1.8 3.3-3.5 4.6-5.5 2.4-3.6 2.4-7.7 1.6-11.8z" fill="#c62c2c" stroke="#000" stroke-miterlimit="10"/><path id="XMLID_40_" class="st2" d="M52.3 126c.1-.1.5-1.3 1.5-2.5-.6.8-1.1 1.6-1.5 2.5z"/><path id="XMLID_41_" class="st2" d="M57 121.4c.7-.2 1.5-.3 2.3-.3-.5.2-1 .6-1.4.5-.3 0-.6-.1-.9-.2z"/><path id="XMLID_42_" class="st2" d="M68 139.7c0 .1.1.1.1.2l-1.3-1.2c.4.2.8.5 1.2 1z"/><path id="XMLID_43_" class="st2" d="M70 141.5s0 .1 0 0l-.6-.5c.2.2.4.4.6.5z"/><path id="XMLID_47_" class="st2" d="M93.2 96.2l-.4 3.7c0-.7.2-2 .4-3.7z"/><path id="XMLID_48_" class="st2" d="M93.2 96.2L95 81.1v-.2c.8 2-.9 10.2-1.8 15.3z"/><path id="XMLID_46_" class="st2" d="M126.1 61.9s-1.7.8-.3 0h.3z"/><path id="XMLID_28_" class="st0" d="M68.1 142.6s-11.4 3.6-15.5 7.3 7.6 33 7.6 33"/><path id="XMLID_44_" class="st2" d="M108.5 59.8l-5.8 4.8c.5-.6 4.6-4.9 5.8-4.8 0-.1 0 0 0 0z"/></g></svg>